<?xml version="1.0" encoding="utf-8"?>
<!-- Generator: Adobe Illustrator 26.0.0, SVG Export Plug-In . SVG Version: 6.00 Build 0)  -->
<svg version="1.1" id="Capa_1" xmlns="http://www.w3.org/2000/svg" xmlns:xlink="http://www.w3.org/1999/xlink" x="0px" y="0px"
	 viewBox="0 0 302 409" style="enable-background:new 0 0 302 409;" xml:space="preserve">
<style type="text/css">
	.st0{fill:#1C1C1C;}
	.st1{fill:#FFFFFF;}
	.st2{fill:#F3931C;}
	.st3{fill:#191919;}
</style>
<g>
	<path class="st0" d="M54.07,347.38c0,7.54-0.08,14.83,0.03,22.11c0.05,3.73-0.7,7.1-5.06,7.02c-4.19-0.08-4.57-3.64-4.57-6.99
		c0-7.83-0.02-15.67,0-23.5c0.02-7.74,0.96-8.68,8.52-8.79c1.16-0.02,2.32-0.1,4.28-0.19c0-1.98,0-3.9,0-5.83
		c0.01-32.65,0.1-65.31-0.07-97.96c-0.03-5.21,1.37-9.02,5.23-12.72c11.79-11.29,23.03-23.15,34.78-34.48
		c3.08-2.97,4.06-5.98,4.04-10.06c-0.12-35.66-0.1-71.32-0.11-106.99c0-11.56,7.1-18.74,18.57-18.75c31-0.02,61.99-0.03,92.99-0.02
		c13.08,0,19.81,6.54,19.82,19.56c0.05,63.14,0.04,126.29,0.01,189.43c-0.01,11.86-6.78,18.57-18.63,18.67
		c-7.5,0.07-14.99,0.08-22.49,0.15c-0.29,0-0.57,0.26-1.35,0.65c0,6.22,0.11,12.67-0.02,19.13c-0.24,12.01-5.92,20.52-16.88,25.44
		c-8.13,3.65-8.14,3.62-7.16,13.29c0.36,0.18,0.77,0.54,1.21,0.57c10.73,0.74,10.73,0.74,10.73,11.76c0,6.5-0.02,13,0.01,19.5
		c0.02,3.82-0.02,8.12-5.05,8.09c-4.72-0.02-4.77-4.1-4.73-7.8c0.07-6.66-0.03-13.33-0.08-19.99c0-0.31-0.2-0.62-0.44-1.31
		C130.07,347.38,92.37,347.38,54.07,347.38z M180.44,277.92c-2.4,0-4.19,0-5.98,0c-8.5,0-17,0.01-25.49-0.02
		c-3.22-0.01-5.73-1.25-5.7-4.82c0.02-3.5,2.43-4.85,5.69-4.9c1.33-0.02,2.67-0.01,4-0.01c20.33,0,40.66-0.05,60.98,0.03
		c4.55,0.02,8.24-1.3,8.72-6.19c0.5-5.23,0.11-10.54,0.11-16.02c-1.76-0.15-3.05-0.35-4.35-0.35c-13.33-0.02-26.66,0-39.99-0.03
		c-3.32-0.01-6.16-1.05-6.12-4.97c0.04-3.91,2.76-4.83,6.18-4.78c6,0.08,12,0.02,18,0.02c8.62,0,17.23,0,26.13,0
		c0-51.26,0-101.92,0-152.59c-37.45,0-74.35,0-111.66,0c0,2.34,0,4.31,0,6.28c0,42.66,0.01,85.31-0.01,127.97
		c0,3.93,0.75,9.07-4.99,9.07c-5.94,0.01-4.74-5.25-4.78-9.1c-0.07-6.86-0.02-13.71-0.02-21.94
		c-11.01,11.03-20.77,21.01-30.79,30.73c-2.5,2.42-3.5,4.82-3.49,8.26c0.07,24.65-0.06,49.3-0.11,73.94c-0.02,9.43,0,18.87,0,28.48
		c30.12,0,59.36,0,89.19,0c0-3.26-0.06-6.22,0.01-9.16c0.23-8.77-1.94-9.55,9.01-11.92c9.52-2.06,15-8.36,15.42-17.16
		C180.69,292.1,180.44,285.43,180.44,277.92z M222.65,73c0.76-10.69-1.34-13-11.15-13c-30,0-60,0-90,0c-9.36,0-11.95,3.35-9.89,13
		C148.5,73,185.42,73,222.65,73z"/>
	<path class="st1" d="M222.65,73c-37.23,0-74.15,0-111.04,0c-2.06-9.65,0.53-13,9.89-13c30,0,60,0,90,0
		C221.31,59.99,223.41,62.31,222.65,73z M166.67,71.19c0-0.05,0.01-0.1,0.01-0.15c1,0,2,0.03,2.99-0.01
		c3.02-0.11,5.2-1.28,5.29-4.65c0.1-3.46-2.14-4.65-5.12-4.75c-2.48-0.09-5.13-0.38-7.41,0.34c-1.47,0.47-3.27,2.55-3.35,4.01
		c-0.09,1.52,1.36,3.61,2.75,4.6C162.99,71.41,165.03,71.03,166.67,71.19z"/>
	<path class="st2" d="M135.78,116.42c6.8-15.55,21.77-22.35,40.24-19.35c14.68,2.38,25.6,14.27,28.07,29.89
		c3.06,19.33-3.06,36.45-12.59,52.59c-4.2,7.12-9.65,13.51-14.67,20.13c-2.11,2.78-4.92,5.28-8.35,2.25
		c-3.37-2.97-1.33-5.9,1.05-8.61c11.21-12.78,21.84-26.54,25.08-43.48c1.8-8.9,2.37-13.87,0.53-23.96
		c-3.17-13.47-14.06-20.42-28.31-19.78c-13.77,0.61-22.96,9.17-24.91,22.67c-2.39,16.52,2.97,31.07,10.7,45.13
		c0.77,1.4,1.83,3.28,1.44,4.52c-0.52,1.65-2.23,3.9-3.61,4.03c-1.68,0.16-4.54-1.18-5.17-2.62c-4.35-9.98-5.94-13.01-9.56-23.28
		c-0.7-1.98-3.54-18.16-3.04-25.15C133.17,124.41,134.42,119.54,135.78,116.42z"/>
	<path class="st0" d="M149.91,202.56c-8.34,8.57-16.52,17.06-24.8,25.45c-9.01,9.12-18.13,18.15-27.19,27.22
		c-2.5,2.5-5.29,4.9-8.46,1.48c-2.78-3-0.93-5.65,1.58-8.15c18.18-18.09,36.27-36.27,54.41-54.4c4.81-4.81,7.14-4.65,11.24,0.61
		c12.87,16.52,11.58,35.87-3.36,50.81c-7.05,7.06-14.07,14.15-21.42,21.56c5.95,7.11,8.6,15.19,7.28,24.46
		c-1.11,7.84-5.27,13.98-10.93,19.02c-1.28,1.14-4.39,0.23-6.65,0.26c-0.02-2.25-0.69-4.77,0.11-6.68c0.98-2.36,3.4-4.07,4.8-6.3
		c5.48-8.73,4.49-17.53-2.61-25.06c-5.12-5.43-5.09-6.48,0.21-11.78c8.01-8.01,16.13-15.91,24-24.05
		C157.6,227.18,158.38,214.65,149.91,202.56z"/>
	<path class="st0" d="M144.93,135.92c0.02-13.2,10.2-23.49,23.25-23.5c13.03-0.01,23.99,10.99,23.78,23.86
		c-0.21,12.86-10.9,23.23-23.88,23.14C154.83,159.32,144.92,149.26,144.93,135.92z M182.01,135.75
		c-0.11-7.71-6.45-13.88-14.12-13.72c-7.39,0.15-13.39,6.38-13.39,13.91c-0.01,7.83,6.14,14.03,13.83,13.96
		C176.01,149.83,182.12,143.51,182.01,135.75z"/>
	<path class="st0" d="M166.78,261.74c-3.5,0-7,0.15-10.49-0.05c-2.97-0.17-5.17-1.66-5.09-4.98c0.08-3.26,2.13-4.7,5.26-4.72
		c6.83-0.03,13.66-0.01,20.48-0.02c3.36-0.01,5.71,1.74,5.67,4.96c-0.04,3.27-2.61,4.79-5.85,4.83c-3.33,0.04-6.66,0.01-9.99,0.01
		C166.78,261.76,166.78,261.75,166.78,261.74z"/>
	<path class="st3" d="M166.67,71.19c-1.65-0.16-3.68,0.23-4.84-0.6c-1.38-0.99-2.84-3.08-2.75-4.6c0.09-1.45,1.88-3.54,3.35-4.01
		c2.28-0.72,4.93-0.43,7.41-0.34c2.98,0.1,5.22,1.29,5.12,4.75c-0.1,3.37-2.27,4.54-5.29,4.65c-1,0.04-2,0.01-2.99,0.01
		C166.68,71.09,166.68,71.14,166.67,71.19z"/>
	<path class="st1" d="M182.01,135.75c0.11,7.76-6.01,14.08-13.68,14.15c-7.68,0.07-13.83-6.13-13.83-13.96
		c0.01-7.53,6-13.76,13.39-13.91C175.57,121.88,181.91,128.04,182.01,135.75z"/>
</g>
</svg>
